<mxfile host="app.diagrams.net" modified="2024-03-20T01:10:07.965Z" agent="Mozilla/5.0 (X11; Linux x86_64) AppleWebKit/537.36 (KHTML, like Gecko) Chrome/121.0.0.0 Safari/537.36" etag="co0m6pyxM-koEoE-ceMQ" version="23.0.2" type="github">
  <diagram id="C5RBs43oDa-KdzZeNtuy" name="Page-1">
    <mxGraphModel dx="1362" dy="793" grid="1" gridSize="10" guides="1" tooltips="1" connect="1" arrows="1" fold="1" page="1" pageScale="1" pageWidth="827" pageHeight="1169" math="0" shadow="0">
      <root>
        <mxCell id="WIyWlLk6GJQsqaUBKTNV-0" />
        <mxCell id="WIyWlLk6GJQsqaUBKTNV-1" parent="WIyWlLk6GJQsqaUBKTNV-0" />
        <mxCell id="lz2ZsJJUygY1JmlEn8Ki-10" style="edgeStyle=orthogonalEdgeStyle;rounded=0;orthogonalLoop=1;jettySize=auto;html=1;entryX=0.5;entryY=0;entryDx=0;entryDy=0;strokeWidth=4;fontSize=18;" edge="1" parent="WIyWlLk6GJQsqaUBKTNV-1" source="lz2ZsJJUygY1JmlEn8Ki-4" target="lz2ZsJJUygY1JmlEn8Ki-5">
          <mxGeometry relative="1" as="geometry" />
        </mxCell>
        <mxCell id="lz2ZsJJUygY1JmlEn8Ki-4" value="Leia A" style="shape=parallelogram;perimeter=parallelogramPerimeter;whiteSpace=wrap;html=1;fixedSize=1;fontSize=18;fontStyle=1;strokeWidth=4;" vertex="1" parent="WIyWlLk6GJQsqaUBKTNV-1">
          <mxGeometry x="300" y="10" width="140" height="60" as="geometry" />
        </mxCell>
        <mxCell id="lz2ZsJJUygY1JmlEn8Ki-9" style="edgeStyle=orthogonalEdgeStyle;rounded=0;orthogonalLoop=1;jettySize=auto;html=1;exitX=0.5;exitY=1;exitDx=0;exitDy=0;entryX=0.5;entryY=0;entryDx=0;entryDy=0;strokeWidth=4;fontSize=18;" edge="1" parent="WIyWlLk6GJQsqaUBKTNV-1" source="lz2ZsJJUygY1JmlEn8Ki-5" target="lz2ZsJJUygY1JmlEn8Ki-8">
          <mxGeometry relative="1" as="geometry" />
        </mxCell>
        <mxCell id="lz2ZsJJUygY1JmlEn8Ki-5" value="Leia B" style="shape=parallelogram;perimeter=parallelogramPerimeter;whiteSpace=wrap;html=1;fixedSize=1;fontSize=18;fontStyle=1;strokeWidth=4;" vertex="1" parent="WIyWlLk6GJQsqaUBKTNV-1">
          <mxGeometry x="300" y="140" width="140" height="60" as="geometry" />
        </mxCell>
        <mxCell id="lz2ZsJJUygY1JmlEn8Ki-12" style="edgeStyle=orthogonalEdgeStyle;rounded=0;orthogonalLoop=1;jettySize=auto;html=1;entryX=0.5;entryY=0;entryDx=0;entryDy=0;fontSize=12;strokeWidth=4;" edge="1" parent="WIyWlLk6GJQsqaUBKTNV-1" source="lz2ZsJJUygY1JmlEn8Ki-8" target="lz2ZsJJUygY1JmlEn8Ki-11">
          <mxGeometry relative="1" as="geometry" />
        </mxCell>
        <mxCell id="lz2ZsJJUygY1JmlEn8Ki-8" value="S = A + B" style="rounded=0;whiteSpace=wrap;html=1;fontStyle=1;fontSize=18;strokeWidth=5;" vertex="1" parent="WIyWlLk6GJQsqaUBKTNV-1">
          <mxGeometry x="300" y="270" width="140" height="60" as="geometry" />
        </mxCell>
        <mxCell id="lz2ZsJJUygY1JmlEn8Ki-11" value="Imprime S" style="shape=parallelogram;perimeter=parallelogramPerimeter;whiteSpace=wrap;html=1;fixedSize=1;fontSize=18;fontStyle=1;strokeWidth=4;" vertex="1" parent="WIyWlLk6GJQsqaUBKTNV-1">
          <mxGeometry x="300" y="390" width="140" height="60" as="geometry" />
        </mxCell>
      </root>
    </mxGraphModel>
  </diagram>
</mxfile>
